<?xml version="1.0" encoding="utf-8"?>
<!-- Generator: Adobe Illustrator 16.0.4, SVG Export Plug-In . SVG Version: 6.00 Build 0)  -->
<!DOCTYPE svg PUBLIC "-//W3C//DTD SVG 1.1//EN" "http://www.w3.org/Graphics/SVG/1.1/DTD/svg11.dtd">
<svg version="1.1" id="Layer_1" xmlns="http://www.w3.org/2000/svg" xmlns:xlink="http://www.w3.org/1999/xlink" x="0px" y="0px"
	 width="1000px" height="1000px" viewBox="0 0 1000 1000" enable-background="new 0 0 1000 1000" xml:space="preserve">
<g>
	<path d="M269.196,734.941c30.05,0.527,86.284,0.193,220.555-24.573c49.99-9.219,105.621-36.371,98.439-75.363
		c-7.049-38.046-53.613-30.698-105.357-21.146l-55.287,10.203c-113.233,20.9-201.582,14.014-239.747-192.765
		c-36.685-198.922,95.334-250.519,235.736-276.428c92.146-16.995,202.763-22.286,258.774-23.533l38.171,206.731
		c-59.686,5.99-125.533,8.028-206.277,22.929c-72.845,13.425-119.564,36.036-112.911,72.098
		c4.84,26.346,48.899,33.474,102.447,23.599c189.558-34.935,254.926-19.787,286.792,152.841
		c36.859,199.933-66.194,246.142-221.55,274.827c-86.878,16.011-177.794,24.733-266.842,29.043L269.196,734.941z"/>
	<polygon points="425.806,60.697 375.355,71.119 548.36,946.482 598.791,936.05 	"/>
</g>
</svg>
