<?xml version="1.0" standalone="no"?>
<!DOCTYPE svg PUBLIC "-//W3C//DTD SVG 20010904//EN"
 "http://www.w3.org/TR/2001/REC-SVG-20010904/DTD/svg10.dtd">
<svg version="1.0" xmlns="http://www.w3.org/2000/svg"
 width="1000.000000pt" height="1000.000000pt" viewBox="0 0 1000.000000 1000.000000"
 preserveAspectRatio="xMidYMid meet">
<metadata>
Created by potrace 1.11, written by Peter Selinger 2001-2013
</metadata>
<g transform="translate(0.000000,1000.000000) scale(0.100000,-0.100000)"
fill="#000000" stroke="none">
<path d="M4075 9377 c-55 -19 -119 -52 -135 -72 -12 -14 -7 -22 41 -62 109
-94 358 -352 475 -493 239 -289 499 -644 549 -754 35 -74 76 -184 91 -241 4
-16 8 -32 9 -35 21 -75 25 -200 9 -269 -14 -63 -47 -131 -64 -131 -4 0 -28 19
-52 43 -141 133 -240 223 -352 320 -12 10 -34 31 -51 45 -99 89 -363 281 -495
359 -198 119 -436 208 -670 253 -250 49 -411 64 -660 64 -271 0 -403 -13 -673
-69 -172 -35 -405 -119 -602 -215 -437 -215 -806 -555 -1113 -1030 -135 -208
-241 -450 -301 -686 -17 -68 -26 -115 -46 -234 -27 -156 -27 -563 -1 -730 2
-8 6 -40 11 -70 7 -56 11 -75 20 -120 2 -14 7 -40 10 -59 3 -19 8 -38 10 -41
3 -4 7 -25 11 -46 9 -60 70 -273 125 -436 94 -281 223 -579 406 -941 174 -344
536 -990 623 -1112 31 -44 141 -199 245 -345 321 -451 473 -647 660 -855 361
-400 718 -654 1098 -779 57 -20 115 -37 128 -39 13 -3 42 -10 64 -15 94 -25
275 -46 395 -46 125 0 202 18 316 74 174 85 352 247 526 479 32 42 61 81 66
86 4 6 29 43 56 83 27 39 52 72 55 72 3 0 19 -19 36 -43 81 -114 283 -296 457
-410 101 -66 322 -191 375 -211 33 -13 71 -22 168 -40 11 -2 43 -7 70 -11 28
-4 61 -8 75 -10 14 -2 57 -7 95 -11 39 -3 86 -8 105 -10 61 -5 344 -5 416 2
530 46 952 228 1269 548 93 94 536 665 736 950 19 27 55 79 81 115 79 110 273
402 345 518 37 60 73 118 80 129 114 183 313 554 398 744 26 58 56 125 67 149
71 157 176 465 232 683 48 184 61 249 86 413 5 39 12 84 15 100 13 90 20 233
20 425 0 279 -10 392 -61 665 -9 50 -64 266 -84 330 -146 472 -371 818 -735
1132 -207 179 -517 357 -800 461 -193 70 -482 145 -645 166 -267 35 -308 38
-532 41 -206 2 -242 0 -386 -29 -48 -10 -255 -75 -307 -96 -224 -93 -390 -175
-530 -260 -33 -20 -67 -40 -75 -44 -25 -11 -47 -26 -219 -139 -90 -59 -169
-106 -175 -104 -10 5 -143 263 -219 427 -19 41 -53 115 -76 163 -22 49 -41 90
-41 92 0 17 -228 476 -266 536 -13 21 -24 41 -24 44 0 6 -15 30 -132 210 -199
306 -334 423 -497 431 -38 2 -83 -2 -106 -9z"/>
</g>
</svg>
